<?xml version="1.0" encoding="utf-8"?>
<!-- Generator: Adobe Illustrator 20.0.0, SVG Export Plug-In . SVG Version: 6.00 Build 0)  -->
<svg version="1.1" id="Layer_1" xmlns="http://www.w3.org/2000/svg" xmlns:xlink="http://www.w3.org/1999/xlink" x="0px" y="0px"
	 viewBox="0 0 350.5 350.5" style="enable-background:new 0 0 350.5 350.5;" xml:space="preserve">
<style type="text/css">
	.st0{fill:#4D4E50;}
	.st1{fill:#FEFEFE;}
	.st2{fill:#D12328;}
</style>
<g id="XMLID_1_">
	<path id="XMLID_140_" class="st0" d="M-1.1,306.3c0-87.4,0-174.7,0-262.1c0.3-1.8,0.6-3.7,0.9-5.5C3.3,19.9,18.8,4.4,37.5,1
		c1.9-0.4,3.8-0.6,5.7-0.9c87.2,0,174.4,0,261.6,0c1.9,0.3,3.8,0.6,5.7,0.9c18.7,3.4,34.2,19,37.8,37.8c0.3,1.7,0.4,3.5,0.9,5.2
		c0,87.6,0,175.2,0,262.8c-0.6,1.6-0.6,3.3-0.9,5c-3.5,18.8-19,34.3-37.8,37.8c-1.9,0.4-3.8,0.6-5.7,0.9c-87.3,0-174.6,0-261.8,0
		c-0.1-0.2-0.3-0.2-0.5-0.2c-2.1-0.2-4.2-0.5-6.3-1c-18.1-3.9-33.1-19.2-36.4-37.5C-0.5,309.9-0.7,308.1-1.1,306.3z M346.4,175.2
		c0-42,0-84,0-126c0-3-0.2-6.1-0.7-9.1c-3.9-21.6-22.6-37.2-44.5-37.2c-84.7,0-169.4,0-254,0c-3.1,0-6.2,0.3-9.3,0.9
		C16.8,8.3,2,26.6,2,48.2C2,132.8,2,217.4,2,302c0,11.6,3.9,21.9,11.7,30.5c7.5,8.3,16.9,13.1,28,14.5c4.5,0.6,8.9,0.4,13.4,0.4
		c81.7,0,163.4,0,245.2,0c13.5,0,25-4.6,34.2-14.6c8.2-8.9,12-19.5,12-31.6C346.4,259.3,346.4,217.3,346.4,175.2z"/>
	<path id="XMLID_139_" class="st1" d="M43.3,0c-1.9,0.3-3.8,0.6-5.7,0.9C18.9,4.4,3.3,19.9-0.1,38.6c-0.3,1.8-0.6,3.7-0.9,5.5
		C-1,29.7-1,15.3-1,1c0-0.9,0.2-1,1-1C14.4,0,28.9,0,43.3,0z"/>
	<path id="XMLID_138_" class="st1" d="M349.3,44c-0.6-1.7-0.6-3.5-0.9-5.2C344.9,20,329.4,4.5,310.6,1c-1.9-0.3-3.8-0.6-5.7-0.9
		c14.5,0,29,0,43.4,0c0.8,0,1,0.2,1,1C349.3,15.3,349.3,29.6,349.3,44z"/>
	<path id="XMLID_137_" class="st1" d="M-1.1,306.3c0.3,1.8,0.6,3.7,0.9,5.5c3.4,18.2,18.3,33.6,36.4,37.5c2.1,0.4,4.2,0.8,6.3,1
		c0.2,0,0.4,0,0.5,0.2c-14.4,0-28.8,0-43.2,0c-0.8,0-1-0.2-1-1C-1.1,335.1-1.1,320.7-1.1,306.3z"/>
	<path id="XMLID_136_" class="st1" d="M304.9,350.4c1.9-0.3,3.8-0.6,5.7-0.9c18.7-3.5,34.2-19,37.8-37.8c0.3-1.7,0.3-3.4,0.9-5
		c0,14.2,0,28.5,0,42.7c0,0.8-0.2,1-1,1C333.9,350.4,319.4,350.4,304.9,350.4z"/>
	<path id="XMLID_121_" class="st0" d="M193.3,67.5c7.6,0,15.1,0,22.7,0c5.4,0,9.4,3.1,10.6,8c0.2,0.9,0.4,1.9,0.4,2.8
		c0,2.8,0,5.7,0,8.5c0,0.9-0.2,1.1-1.1,1.1c-10.3,0-20.6,0-31,0c-0.5,0-1,0-1.5,0.1c-1.5,0.3-2.5,1.7-2.3,3c0.1,1.5,1.4,2.6,3,2.6
		c4.3,0,8.6,0,12.8-0.1c4.8,0,9.7,0,14.5,0c1.1,0,1.7,0.4,2.1,1.4c10.4,27.5-4,58.2-32,67.1c-20,6.4-37.9,1.9-53.2-12.6
		c-1.1-1-2.1-2.1-2.9-3.3c-1.9-2.8-2.1-5.9-0.9-8.9c1.5-3.9,2.9-7.8,4.2-11.7c1.2-3.6,4-5.3,7.4-4.4c2,0.5,3.3,1.9,4.2,3.7
		c1.9,3.5,4.1,6.7,7.2,9.2c8.2,6.5,17.3,8.3,27.1,4.6c9.7-3.7,15.6-10.8,17.4-21.2c0.2-1,0.7-2.4,0.3-3c-0.5-0.7-1.9-0.2-3-0.2
		c-6.3,0-12.6,0-18.8,0c-6.7,0-11.2-4.3-11.4-11.1c-0.4-11.5-0.1-23-0.2-34.6c0-1,0.5-0.9,1.2-0.9C177.8,67.5,185.5,67.5,193.3,67.5
		L193.3,67.5z"/>
	<path id="XMLID_120_" class="st0" d="M246.5,303.8c-1-3-2.2-5.7-4.1-8.1c-4.5-5.7-10.6-7.6-17.5-7.3c-9.8,0.4-15.9,5.7-19.1,14.6
		c-0.4,1.1-0.7,1.3-1.8,0.8c-16.5-8-26.6-20.9-29.9-38.9c-0.5-2.7-0.7-5.4-0.7-8.1c0-21.4,0-42.8,0-64.2c0-1,0.2-1.3,1.3-1.3
		c7.4,0.1,14.8,0.1,22.2,0c1,0,1.3,0.2,1.3,1.3c-0.1,21.1-0.2,42.2-0.2,63.3c0,13.6,9,24.7,22.3,27.5c14.4,3,29.3-7.1,31.9-21.6
		c1.2-6.7,0.3-13-3.1-19c-1.7-3.1-1.1-6.4,1.4-8.4c1.1-0.9,2.4-1.4,3.9-1.4c5.2,0,10.5,0,15.7-0.1c1.3,0,2,0.5,2.4,1.6
		c3,7.1,4.9,14.4,4.9,22.2c0,10.8-3.5,20.5-9.5,29.4c-5.1,7.6-11.9,13.2-20.1,17.2C247.4,303.5,246.9,303.6,246.5,303.8z"/>
	<path id="XMLID_119_" class="st0" d="M163.8,90.4c0,4.2,0,8.3,0,12.5c0,6.8-4.3,11-11.1,11.2c-5,0.1-10.1,0.1-15.1,0
		c-1.9,0-2.1,0.1-2.2,2c-0.6,8.4-2.7,16.3-7.2,23.5c-8.7,14-21.2,22.6-37.7,24.9c-12.7,1.8-24.4-0.9-35.2-7.8
		c-3.6-2.3-4.2-4.9-1.9-8.6c2.2-3.5,4.2-7.1,5.8-10.9c1.4-3.3,4.8-4.4,7.9-2.5c2.7,1.7,5.4,3.2,8.4,4.2c15,4.7,31.4-5.4,34-20.9
		c0.8-5,0.4-9.8-1.3-14.5c-0.6-1.6-0.9-3.1-0.7-4.8c0.5-3.1,2.8-4.9,6.2-4.9c6.1,0,12.2,0,18.2,0.1c1.1,0,2.2,0,3.3-0.4
		c2.5-0.9,3.9-3.2,3.9-6.4c0-6.1,0-12.2,0-18.4c0-1,0.2-1.3,1.3-1.3c4.6,0.1,9.2,0,13.8,0c4.5,0,8.3,3.2,9.2,7.7
		c0.3,1.3,0.2,2.5,0.2,3.8c0,1.9,0,3.8,0,5.8C163.8,86.6,163.8,88.5,163.8,90.4L163.8,90.4z"/>
	<path id="XMLID_118_" class="st0" d="M221.3,27.2c7.8,0,15.5-0.2,23.3,0c14.9,0.5,27.8,5.9,38.2,16.8c6.5,6.9,10.1,15.4,12.4,24.5
		c1.2,4.7,1.3,9.4,1.2,14.1c0,0.5,0,1,0,1.6c-0.1,1.2,0.5,2.9-0.2,3.6c-0.7,0.6-2.3,0.2-3.5,0.2c-3.6-0.1-7.3,0.1-10.9-0.3
		c-5.2-0.6-8.5-3.5-9.7-8.7c-0.8-3.8-1.4-7.6-3-11.2c-4.4-9.4-11.8-14.4-22-15.7c-2.7-0.3-5.5-0.4-8.3-0.4c-9.8,0-19.7-0.1-29.5,0
		c-2.7,0-5.2-0.6-7.7-1.5c-4.1-1.6-6-4.7-6.3-9s-0.2-8.6-0.3-12.9c0-1,0.3-1.1,1.2-1.1C204.5,27.2,212.9,27.2,221.3,27.2z"/>
	<path id="XMLID_117_" class="st0" d="M112.3,248.1c0-18.4,0-36.8,0-55.2c0-1.2,0.3-1.5,1.4-1.5c4.6,0.1,9.3-0.4,13.9,0.2
		c5.1,0.6,8.8,4.9,8.8,10c0,8.5,0,17,0,25.6c0,25.1,0,50.2,0,75.2c0,2.2,0,2.2-2.2,2.2c-6.8,0-13.7,0-20.5,0c-1.1,0-1.4-0.2-1.4-1.3
		C112.3,284.9,112.3,266.5,112.3,248.1z"/>
	<path id="XMLID_116_" class="st0" d="M233.5,116.2c0-15.8,0-31.5,0-47.3c0-1.1,0.3-1.3,1.3-1.3c4.6,0.1,9.2-0.2,13.8,0.2
		c5,0.5,8.5,4.1,8.8,9.1c0.1,2.4,0.1,4.7,0.1,7.1c0,26.4,0,52.9,0,79.3c0,1.2-0.3,1.5-1.5,1.5c-7.1-0.1-14.2-0.1-21.2,0
		c-1.2,0-1.3-0.4-1.3-1.4C233.5,147.8,233.5,132,233.5,116.2z"/>
	<path id="XMLID_115_" class="st0" d="M81.7,268.6c0-11.6,0-23.3,0-34.9c0-1.1,0.3-1.4,1.3-1.3c4.3,0,8.6,0,12.8,0
		c5.9,0.1,10.1,4.4,10.1,10.2c0,20-0.1,40.1-0.1,60.1c0,0.2,0,0.4,0,0.6c0.1,1-0.2,1.3-1.3,1.3c-7.2-0.1-14.5,0-21.7,0
		c-0.9,0-1.1-0.2-1.1-1.1C81.8,291.9,81.7,280.2,81.7,268.6z"/>
	<path id="XMLID_114_" class="st0" d="M143,268.4c0-11.6,0-23.3,0-34.9c0-0.9,0.2-1.3,1.2-1.3c4.2,0,8.4-0.2,12.6,0.1
		c5.5,0.4,9.2,3.9,9.9,9.3c0.6,4.3,0.3,8.6,0.3,12.9c0.1,16,0.1,32.1,0.1,48.1c0,2,0,2-2,2c-7,0-14,0-21,0c-0.9,0-1.2-0.2-1.2-1.2
		C143,291.8,143,280.1,143,268.4z"/>
	<path id="XMLID_111_" class="st2" d="M112.5,27.4c7.7-0.4,16.4,6.2,16.5,16.3c0,9.2-7.3,16.5-16.5,16.5c-9,0-16.4-7.4-16.4-16.5
		C96.1,34.2,104.3,27,112.5,27.4z M98.4,42.9c1-4.5,3.4-7.9,7.4-10.2c0.3-0.2,1-0.1,0.6-0.9c-0.4-0.7-0.8-0.3-1.2-0.1
		C100.8,34.2,98.8,38.1,98.4,42.9z"/>
	<path id="XMLID_108_" class="st2" d="M145.7,27.4c7.7-0.4,16.4,6.2,16.5,16.3c0,9.2-7.3,16.5-16.5,16.5c-9,0-16.4-7.4-16.4-16.5
		C129.2,34.2,137.4,27,145.7,27.4z M131.5,42.9c1-4.5,3.4-7.9,7.4-10.2c0.3-0.2,1-0.1,0.5-0.9c-0.4-0.6-0.7-0.3-1.2-0.1
		C133.9,34.2,131.9,38,131.5,42.9z"/>
	<path id="XMLID_105_" class="st2" d="M153.4,171.1c7.7-0.4,16.4,6.2,16.5,16.3c0,9.2-7.3,16.5-16.5,16.5c-9,0-16.4-7.4-16.4-16.5
		C136.9,177.9,145.1,170.8,153.4,171.1z M139.2,186.6c1-4.5,3.5-8,7.5-10.3c0.3-0.2,0.8-0.3,0.4-0.8c-0.3-0.4-0.5-0.4-1-0.2
		C141.7,177.8,139.6,181.7,139.2,186.6z"/>
	<path id="XMLID_102_" class="st2" d="M226.1,292.8c7.7-0.4,16.4,6.2,16.4,16.5c0,9-7.3,16.3-16.4,16.4c-9,0-16.5-7.4-16.5-16.5
		C209.6,299.6,217.8,292.4,226.1,292.8z M211.9,308.3c1-4.5,3.4-7.9,7.4-10.2c0.3-0.2,1-0.1,0.5-0.9c-0.4-0.6-0.7-0.3-1.2-0.1
		C214.3,299.6,212.3,303.5,211.9,308.3z"/>
</g>
</svg>
